<svg id="Layer_1" data-name="Layer 1" xmlns="http://www.w3.org/2000/svg" viewBox="0 0 96 88.54"><defs><style>.cls-1{fill:#fff;}</style></defs><path d="M48.61,75.66a58,58,0,0,1-8.53-.52,1.44,1.44,0,0,0-1.13.28c-5.62,3.94-11.24,7.89-17,11.56-.7.45-1.44.85-2.16,1.26a2.27,2.27,0,0,1-.83.28c-.93.13-1.48-.42-1.28-1.34.35-1.61.83-3.2,1.28-4.79,1.15-4,2.29-8,3.45-12,.1-.35.06-.52-.3-.7A44.09,44.09,0,0,1,7.83,58.54a32.45,32.45,0,0,1-7.45-16A30.31,30.31,0,0,1,3.86,23,39.68,39.68,0,0,1,17.51,8.63,53.16,53.16,0,0,1,37.33,1a59,59,0,0,1,16-.7A53.56,53.56,0,0,1,80.86,10.3,36.75,36.75,0,0,1,93.33,25.52c4.26,10,3.37,19.74-2.3,29a40.49,40.49,0,0,1-14.7,13.84A54.21,54.21,0,0,1,58,74.84,59.72,59.72,0,0,1,48.61,75.66Z"/><path class="cls-1" d="M23.71,44l8.36-12.74H24.5V27.69H37.34v2.58L29,43h8.43V46.6H23.71Z"/><path class="cls-1" d="M39.23,42.61c0-3,2.42-4.68,8.11-5.28a2,2,0,0,0-2.28-2.08,8,8,0,0,0-3.81,1.3l-1.51-2.8a11.79,11.79,0,0,1,6.15-1.89c3.67,0,5.71,2.1,5.71,6.51V46.6H48.12l-.3-1.48h-.11A6.3,6.3,0,0,1,43.52,47,4.15,4.15,0,0,1,39.23,42.61Zm8.11-.19V39.9c-3,.41-4,1.28-4,2.37,0,.92.63,1.38,1.65,1.38A3.27,3.27,0,0,0,47.34,42.42Z"/><path class="cls-1" d="M55.18,42.13V26.28h4.26v16c0,.91.43,1.21.77,1.21a1.86,1.86,0,0,0,.53-.06l.5,3.14A5.52,5.52,0,0,1,59.1,47C56.18,47,55.18,45,55.18,42.13Z"/><path class="cls-1" d="M62.64,39.41c0-4.79,3.37-7.55,7-7.55s7,2.76,7,7.55S73.29,47,69.65,47,62.64,44.18,62.64,39.41Zm9.65,0c0-2.49-.88-4.11-2.64-4.11S67,36.92,67,39.41s.87,4.1,2.64,4.1S72.29,41.9,72.29,39.41Z"/></svg>